# Blender 3.4.1
# www.blender.org
o passaro_voando
v 0.306025 0.406110 1.582425
v -0.306025 0.406110 1.582425
v 0.306025 0.406110 1.922113
v -0.306025 0.406110 1.922113
v 0.209336 -0.639076 1.855534
v -0.209336 -0.639076 1.855534
v 0.209336 -0.639076 1.649005
v -0.209336 -0.639076 1.649005
v 0.072259 0.938885 1.710028
v -0.072656 0.938885 1.710028
v 0.072259 0.938885 1.840735
v -0.072656 0.938885 1.840735
v 0.210543 0.643919 1.881903
v -0.210940 0.643919 1.881903
v 0.210543 0.643919 1.668860
v -0.210940 0.643919 1.668860
v -0.048228 0.666358 1.916011
v -0.158733 0.666358 1.916011
v -0.048228 0.666358 2.026515
v -0.158733 0.666358 2.026515
v -0.048228 0.642673 2.026515
v -0.158733 0.642673 2.026515
v -0.048228 0.642673 1.916011
v -0.158733 0.642673 1.916011
v 0.155406 0.666358 1.916011
v 0.044901 0.666358 1.916011
v 0.155406 0.666358 2.026515
v 0.044901 0.666358 2.026515
v 0.155406 0.642673 2.026515
v 0.044901 0.642673 2.026515
v 0.155406 0.642673 1.916011
v 0.044901 0.642673 1.916011
v 0.210392 0.407681 1.880744
v -0.210392 0.407681 1.880744
v 0.210392 0.407681 1.669170
v -0.210392 0.407681 1.669170
v 0.210392 0.643493 1.880744
v -0.210392 0.643493 1.880744
v 0.210392 0.643493 2.057834
v -0.210392 0.643493 2.057834
v -0.210392 0.407681 2.057834
v 0.210392 0.407681 2.057834
v 0.210392 0.643493 1.669170
v -0.210392 0.643493 1.669170
vn -0.0000 1.0000 -0.0000
vn -0.0000 -0.0636 0.9980
vn -0.0000 -1.0000 -0.0000
vn -0.0000 -0.0636 -0.9980
vn -0.9957 -0.0921 -0.0000
vn 0.9957 -0.0921 -0.0000
vn -0.0000 0.1382 0.9904
vn -0.0000 0.1382 -0.9904
vn -0.9054 0.4245 -0.0000
vn 0.9054 0.4245 -0.0000
vn -0.0000 -0.0000 1.0000
vn -0.0000 -0.0000 -1.0000
vn -1.0000 -0.0000 -0.0000
vn 1.0000 -0.0000 -0.0000
vt 0.398076 0.252572
vt 0.394741 0.263708
vt 0.399046 0.204768
vt 0.400501 0.257878
vt 0.398076 0.205982
vt 0.441332 0.263708
vt 0.394915 0.212540
vt 0.435627 0.252572
vt 0.436597 0.204768
vt 0.435627 0.205982
vt 0.441505 0.212540
vt 0.438052 0.257878
vt 0.421206 0.276700
vt 0.429237 0.257878
vt 0.402275 0.265650
vt 0.434145 0.265650
vt 0.421206 0.244830
vt 0.430692 0.204768
vt 0.402101 0.210599
vt 0.444037 0.276700
vt 0.406406 0.257878
vt 0.444037 0.244830
vt 0.433971 0.210599
vt 0.407861 0.204768
vt 0.750311 0.643978
vt 0.750311 0.538302
vt 0.776730 0.538302
vt 0.776730 0.643978
vt 0.750311 0.564721
vt 0.776730 0.564721
vt 0.750311 0.591140
vt 0.723892 0.564721
vt 0.776730 0.591140
vt 0.803149 0.564721
vt 0.723892 0.538302
vt 0.750311 0.617559
vt 0.776730 0.617559
vt 0.803149 0.538302
vt 0.214384 0.889993
vt 0.233017 0.902795
vt 0.237712 0.902889
vt 0.233195 0.889993
vt 0.227186 0.889993
vt 0.233017 0.889993
vt 0.227352 0.902795
vt 0.214384 0.902795
vt 0.237712 0.915691
vt 0.227186 0.902795
vt 0.227352 0.889993
vt 0.233195 0.902795
vt 0.230096 0.902795
vt 0.234968 0.915691
vt 0.230096 0.889993
vt 0.235939 0.902795
vt 0.230273 0.902795
vt 0.234968 0.902889
vt 0.230273 0.889993
vt 0.235939 0.889993
vt 0.214384 0.889993
vt 0.233017 0.902795
vt 0.237712 0.902889
vt 0.233195 0.889993
vt 0.227186 0.889993
vt 0.233017 0.889993
vt 0.227352 0.902795
vt 0.214384 0.902795
vt 0.237712 0.915691
vt 0.227186 0.902795
vt 0.227352 0.889993
vt 0.233195 0.902795
vt 0.230096 0.902795
vt 0.234968 0.915691
vt 0.230096 0.889993
vt 0.235939 0.902795
vt 0.230273 0.902795
vt 0.234968 0.902889
vt 0.230273 0.889993
vt 0.235939 0.889993
vt 0.388459 0.269307
vt 0.436482 0.301244
vt 0.436482 0.234898
vt 0.421605 0.269776
vt 0.385534 0.306236
vt 0.388459 0.202961
vt 0.385534 0.239890
vt 0.421605 0.203430
vt 0.378897 0.301074
vt 0.421632 0.269307
vt 0.378897 0.234728
vt 0.388706 0.270324
vt 0.381514 0.308899
vt 0.421632 0.324839
vt 0.434429 0.301074
vt 0.381514 0.242553
vt 0.434429 0.234728
vt 0.388432 0.325308
vt 0.414687 0.242553
vt 0.421605 0.325308
vt 0.380950 0.234898
vt 0.414687 0.308899
vt 0.388459 0.324839
vt 0.380950 0.301244
vt 0.418707 0.306236
vt 0.421632 0.202961
vt 0.418707 0.239890
vt 0.388706 0.202882
s 0
f 2/5/1 3/8/1 1/1/1
f 4/11/2 5/15/2 3/7/2
f 6/17/3 7/20/3 5/13/3
f 8/23/4 1/2/4 7/19/4
f 8/24/5 4/12/5 2/4/5
f 7/21/6 3/9/6 5/14/6
f 10/27/1 11/29/1 9/26/1
f 12/30/7 13/31/7 11/29/7
f 14/33/3 15/36/3 13/31/3
f 16/37/8 9/25/8 15/36/8
f 16/38/9 12/30/9 10/27/9
f 9/26/10 13/32/10 15/35/10
f 18/43/1 19/46/1 17/39/1
f 20/49/11 21/51/11 19/45/11
f 24/57/12 17/40/12 23/55/12
f 24/58/13 20/50/13 18/42/13
f 17/41/14 21/52/14 23/56/14
f 26/63/1 27/66/1 25/59/1
f 28/69/11 29/71/11 27/65/11
f 32/77/12 25/60/12 31/75/12
f 32/78/13 28/70/13 26/62/13
f 25/61/14 29/72/14 31/76/14
f 40/94/11 42/100/11 39/91/11
f 36/85/12 43/103/12 35/83/12
f 35/84/14 37/88/14 42/101/14
f 38/89/1 39/93/1 37/87/1
f 41/98/13 38/90/13 36/86/13
f 33/80/3 41/99/3 34/81/3
f 2/5/1 4/10/1 3/8/1
f 4/11/2 6/16/2 5/15/2
f 6/17/3 8/22/3 7/20/3
f 8/23/4 2/6/4 1/2/4
f 8/24/5 6/18/5 4/12/5
f 7/21/6 1/3/6 3/9/6
f 10/27/1 12/30/1 11/29/1
f 12/30/7 14/33/7 13/31/7
f 14/33/3 16/37/3 15/36/3
f 16/37/8 10/28/8 9/25/8
f 16/38/9 14/34/9 12/30/9
f 9/26/10 11/29/10 13/32/10
f 18/43/1 20/48/1 19/46/1
f 20/49/11 22/53/11 21/51/11
f 24/57/12 18/44/12 17/40/12
f 24/58/13 22/54/13 20/50/13
f 17/41/14 19/47/14 21/52/14
f 26/63/1 28/68/1 27/66/1
f 28/69/11 30/73/11 29/71/11
f 32/77/12 26/64/12 25/60/12
f 32/78/13 30/74/13 28/70/13
f 25/61/14 27/67/14 29/72/14
f 40/94/11 41/97/11 42/100/11
f 36/85/12 44/105/12 43/103/12
f 42/101/13 33/79/13 35/84/13
f 35/84/14 43/104/14 37/88/14
f 37/88/14 39/92/14 42/101/14
f 38/89/1 40/95/1 39/93/1
f 36/86/14 34/82/14 41/98/14
f 41/98/13 40/96/13 38/90/13
f 38/90/13 44/106/13 36/86/13
f 33/80/3 42/102/3 41/99/3
