# This file uses centimeters as units for non-parametric coordinates.

mtllib passaro voando.mtl
g default
v -0.069998 1.676378 -0.633407
v 0.073560 1.676378 -0.632036
v -0.069998 1.765121 -0.633407
v 0.073560 1.765121 -0.632036
v -0.065611 1.765121 -1.092671
v 0.077947 1.765121 -1.091300
v -0.065611 1.676378 -1.092671
v 0.077947 1.676378 -1.091300
v -0.158954 1.676378 -0.598203
v -0.024223 1.676378 -0.647788
v -0.158954 1.765121 -0.598203
v -0.024223 1.765121 -0.647788
v -0.317582 1.765121 -1.029225
v -0.182852 1.765121 -1.078810
v -0.317582 1.676378 -1.029225
v -0.182852 1.676378 -1.078810
v -0.306025 1.582425 0.406110
v 0.306025 1.582425 0.406110
v -0.306025 1.922113 0.406110
v 0.306025 1.922113 0.406110
v -0.209336 1.855534 -0.639076
v 0.209336 1.855534 -0.639076
v -0.209336 1.649005 -0.639076
v 0.209336 1.649005 -0.639076
v -0.072259 1.710028 0.938885
v 0.072656 1.710028 0.938885
v -0.072259 1.840735 0.938885
v 0.072656 1.840735 0.938885
v -0.210543 1.881903 0.643919
v 0.210940 1.881903 0.643919
v -0.210543 1.668860 0.643919
v 0.210940 1.668860 0.643919
v -0.288557 1.829632 0.210189
v -0.871939 1.829632 -0.075374
v -0.288557 1.721395 0.210189
v -0.871939 1.721395 -0.075374
v -0.246454 1.721395 -0.273598
v -0.850117 1.721395 -0.326133
v -0.246454 1.829632 -0.273598
v -0.850117 1.829632 -0.326133
v -0.585047 1.721395 0.122545
v -0.548285 1.721395 -0.299866
v -0.548285 1.829632 -0.299866
v -0.585047 1.829632 0.122545
v -0.500394 1.721395 0.147569
v -0.469172 1.721395 -0.292981
v -0.469055 1.829632 -0.292971
v -0.511801 1.829632 0.144197
v -0.982512 1.829632 -0.337655
v -0.991676 1.829632 -0.232359
v -0.982512 1.721395 -0.337655
v -0.991676 1.721395 -0.232359
v 0.048228 1.916011 0.666358
v 0.158733 1.916011 0.666358
v 0.048228 2.026515 0.666358
v 0.158733 2.026515 0.666358
v 0.048228 2.026515 0.642673
v 0.158733 2.026515 0.642673
v 0.048228 1.916011 0.642673
v 0.158733 1.916011 0.642673
v -0.155406 1.916011 0.666358
v -0.044901 1.916011 0.666358
v -0.155406 2.026515 0.666358
v -0.044901 2.026515 0.666358
v -0.155406 2.026515 0.642673
v -0.044901 2.026515 0.642673
v -0.155406 1.916011 0.642673
v -0.044901 1.916011 0.642673
v -0.210392 1.880744 0.407681
v 0.210392 1.880744 0.407681
v -0.210392 1.669170 0.407681
v 0.210392 1.669170 0.407681
v -0.210392 1.880744 0.643493
v 0.210392 1.880744 0.643493
v -0.210392 2.057834 0.643493
v 0.210392 2.057834 0.643493
v 0.210392 2.057834 0.407681
v -0.210392 2.057834 0.407681
v -0.210392 1.669170 0.643493
v 0.210392 1.669170 0.643493
v 0.025660 1.676378 -0.638782
v 0.159418 1.676378 -0.586632
v 0.025660 1.765121 -0.638782
v 0.159418 1.765121 -0.586632
v 0.192493 1.765121 -1.066695
v 0.326251 1.765121 -1.014546
v 0.192493 1.676378 -1.066695
v 0.326251 1.676378 -1.014546
v 0.291975 1.721394 0.212757
v 0.872710 1.721394 -0.078153
v 0.291975 1.829632 0.212757
v 0.872710 1.829632 -0.078153
v 0.245430 1.829632 -0.270623
v 0.848585 1.829632 -0.328701
v 0.245430 1.721394 -0.270623
v 0.848585 1.721394 -0.328701
v 0.587647 1.829632 0.122393
v 0.547008 1.829632 -0.299662
v 0.547008 1.721394 -0.299662
v 0.587647 1.721394 0.122393
v 0.503228 1.829632 0.148194
v 0.467961 1.829632 -0.292051
v 0.467843 1.721394 -0.292040
v 0.514604 1.721394 0.144717
v 0.980869 1.721394 -0.341439
v 0.990999 1.721394 -0.236231
v 0.980869 1.829632 -0.341439
v 0.990999 1.829632 -0.236231
vt 0.014832 0.913204
vt 0.088629 0.913204
vt 0.088629 0.987001
vt 0.014832 0.987001
vt 0.015220 0.987743
vt 0.015220 0.913945
vt 0.089018 0.913945
vt 0.089018 0.987743
vt 0.015220 0.914096
vt 0.089018 0.914096
vt 0.089018 0.987893
vt 0.015220 0.987893
vt 0.015610 0.913204
vt 0.089407 0.913204
vt 0.089407 0.987001
vt 0.015610 0.987001
vt 0.014620 0.912054
vt 0.088417 0.912054
vt 0.088417 0.985852
vt 0.014620 0.985852
vt 0.015220 0.914096
vt 0.089018 0.914096
vt 0.089018 0.987893
vt 0.015220 0.987893
vt 0.014620 0.912054
vt 0.088417 0.912054
vt 0.088417 0.985852
vt 0.014620 0.985852
vt 0.015610 0.987001
vt 0.015610 0.913204
vt 0.089407 0.913204
vt 0.089407 0.987001
vt 0.014832 0.913204
vt 0.088629 0.913204
vt 0.088629 0.987001
vt 0.014832 0.987001
vt 0.014404 0.912721
vt 0.088201 0.912721
vt 0.088201 0.986518
vt 0.014404 0.986518
vt 0.398076 0.252572
vt 0.398076 0.205982
vt 0.435627 0.205982
vt 0.435627 0.252572
vt 0.394915 0.212540
vt 0.441505 0.212540
vt 0.434145 0.265650
vt 0.402275 0.265650
vt 0.421206 0.276700
vt 0.421206 0.244830
vt 0.444037 0.244830
vt 0.444037 0.276700
vt 0.402101 0.210599
vt 0.433971 0.210599
vt 0.441332 0.263708
vt 0.394741 0.263708
vt 0.400501 0.257878
vt 0.407861 0.204768
vt 0.430692 0.204768
vt 0.438052 0.257878
vt 0.406406 0.257878
vt 0.399046 0.204768
vt 0.436597 0.204768
vt 0.429237 0.257878
vt 0.750311 0.538302
vt 0.776730 0.538302
vt 0.776730 0.564721
vt 0.750311 0.564721
vt 0.776730 0.591140
vt 0.750311 0.591140
vt 0.776730 0.617559
vt 0.750311 0.617559
vt 0.776730 0.643978
vt 0.750311 0.643978
vt 0.803149 0.538302
vt 0.803149 0.564721
vt 0.723892 0.538302
vt 0.723892 0.564721
vt 0.406935 0.273452
vt 0.413975 0.273542
vt 0.413375 0.292236
vt 0.406696 0.292150
vt 0.384934 0.272968
vt 0.386714 0.266310
vt 0.403720 0.266309
vt 0.403632 0.273208
vt 0.403963 0.273212
vt 0.404051 0.266313
vt 0.422750 0.266557
vt 0.422661 0.273452
vt 0.416302 0.296375
vt 0.416391 0.289480
vt 0.433305 0.289552
vt 0.435001 0.296615
vt 0.150118 0.849881
vt 0.150118 0.850432
vt 0.036878 0.850432
vt 0.036878 0.849881
vt 0.403752 0.263859
vt 0.387426 0.263649
vt 0.394180 0.254385
vt 0.403872 0.254509
vt 0.422781 0.264103
vt 0.404083 0.263863
vt 0.404203 0.254514
vt 0.422901 0.254753
vt 0.432748 0.287235
vt 0.416422 0.287026
vt 0.416542 0.277677
vt 0.426234 0.277801
vt 0.390059 0.291937
vt 0.390299 0.273239
vt 0.396933 0.273324
vt 0.396693 0.292022
vt 0.014892 0.863371
vt 0.014892 0.859597
vt 0.014894 0.850000
vt 0.014894 0.854393
vt 0.147985 0.863385
vt 0.147987 0.854394
vt 0.147985 0.858304
vt 0.147987 0.850000
vt 0.214384 0.889993
vt 0.227186 0.889993
vt 0.227186 0.902795
vt 0.214384 0.902795
vt 0.227352 0.902795
vt 0.227352 0.889993
vt 0.230096 0.889993
vt 0.230096 0.902795
vt 0.230273 0.902795
vt 0.230273 0.889993
vt 0.233017 0.889993
vt 0.233017 0.902795
vt 0.233195 0.889993
vt 0.235939 0.889993
vt 0.235939 0.902795
vt 0.233195 0.902795
vt 0.234968 0.902889
vt 0.237712 0.902889
vt 0.237712 0.915691
vt 0.234968 0.915691
vt 0.214384 0.889993
vt 0.227186 0.889993
vt 0.227186 0.902795
vt 0.214384 0.902795
vt 0.227352 0.902795
vt 0.227352 0.889993
vt 0.230096 0.889993
vt 0.230096 0.902795
vt 0.230273 0.902795
vt 0.230273 0.889993
vt 0.233017 0.889993
vt 0.233017 0.902795
vt 0.233195 0.889993
vt 0.235939 0.889993
vt 0.235939 0.902795
vt 0.233195 0.902795
vt 0.234968 0.902889
vt 0.237712 0.902889
vt 0.237712 0.915691
vt 0.234968 0.915691
vt 0.381514 0.308899
vt 0.381514 0.242553
vt 0.414687 0.242553
vt 0.414687 0.308899
vt 0.385534 0.306236
vt 0.385534 0.239890
vt 0.418707 0.239890
vt 0.418707 0.306236
vt 0.388459 0.269307
vt 0.388459 0.202961
vt 0.421632 0.202961
vt 0.421632 0.269307
vt 0.421632 0.324839
vt 0.388459 0.324839
vt 0.378897 0.301074
vt 0.378897 0.234728
vt 0.434429 0.234728
vt 0.434429 0.301074
vt 0.421605 0.269776
vt 0.421605 0.325308
vt 0.388432 0.325308
vt 0.388706 0.270324
vt 0.388706 0.202882
vt 0.421605 0.203430
vt 0.436482 0.234898
vt 0.436482 0.301244
vt 0.380950 0.301244
vt 0.380950 0.234898
vt 0.015220 0.987893
vt 0.015220 0.914096
vt 0.089018 0.914096
vt 0.089018 0.987893
vt 0.010974 0.913877
vt 0.084772 0.913877
vt 0.084772 0.987675
vt 0.010974 0.987675
vt 0.015610 0.987001
vt 0.015610 0.913204
vt 0.089407 0.913204
vt 0.089407 0.987001
vt 0.014832 0.913204
vt 0.088629 0.913204
vt 0.088629 0.987001
vt 0.014832 0.987001
vt 0.014812 0.914353
vt 0.088609 0.914353
vt 0.088609 0.988151
vt 0.014812 0.988151
vt 0.411368 0.262589
vt 0.420706 0.262589
vt 0.420229 0.287395
vt 0.411368 0.287395
vt 0.382176 0.262321
vt 0.384424 0.253459
vt 0.406982 0.253169
vt 0.406982 0.262321
vt 0.407421 0.262321
vt 0.407421 0.253169
vt 0.432227 0.253174
vt 0.432227 0.262321
vt 0.424182 0.292835
vt 0.424182 0.283688
vt 0.446618 0.283496
vt 0.448988 0.292835
vt 0.150118 0.856679
vt 0.150118 0.857991
vt 0.036878 0.857991
vt 0.036878 0.856679
vt 0.406982 0.249918
vt 0.385323 0.249918
vt 0.394124 0.237515
vt 0.406982 0.237515
vt 0.432227 0.249918
vt 0.407421 0.249918
vt 0.407421 0.237515
vt 0.432227 0.237515
vt 0.445841 0.280432
vt 0.424182 0.280432
vt 0.424182 0.268029
vt 0.437040 0.268029
vt 0.389297 0.287395
vt 0.389297 0.262589
vt 0.398098 0.262589
vt 0.398098 0.287395
vt 0.036877 0.963122
vt 0.036877 0.962571
vt 0.150118 0.962571
vt 0.150118 0.963122
vt 0.147958 0.969756
vt 0.147956 0.973530
vt 0.147954 0.983127
vt 0.147955 0.978733
vt 0.014864 0.969742
vt 0.014862 0.978733
vt 0.014862 0.974823
vt 0.014860 0.983127
vt 0.036877 0.956325
vt 0.036877 0.955012
vt 0.150118 0.955012
vt 0.150118 0.956325
vn 0.000000 1.000000 -0.000000
vn 0.000000 1.000000 -0.000000
vn 0.000000 1.000000 -0.000000
vn 0.000000 1.000000 -0.000000
vn 0.009552 0.000000 -0.999954
vn 0.009552 0.000000 -0.999954
vn 0.009552 0.000000 -0.999954
vn 0.009552 0.000000 -0.999954
vn 0.000000 -1.000000 0.000000
vn 0.000000 -1.000000 0.000000
vn 0.000000 -1.000000 0.000000
vn 0.000000 -1.000000 0.000000
vn 0.999954 0.000000 0.009552
vn 0.999954 0.000000 0.009552
vn 0.999954 0.000000 0.009552
vn 0.999954 0.000000 0.009552
vn -0.999954 0.000000 -0.009552
vn -0.999954 0.000000 -0.009552
vn -0.999954 0.000000 -0.009552
vn -0.999954 0.000000 -0.009552
vn 0.000000 1.000000 0.000000
vn 0.000000 1.000000 0.000000
vn 0.000000 1.000000 0.000000
vn 0.000000 1.000000 0.000000
vn -0.345379 0.000000 -0.938463
vn -0.345379 0.000000 -0.938463
vn -0.345379 0.000000 -0.938463
vn -0.345379 0.000000 -0.938463
vn 0.000000 -1.000000 0.000000
vn 0.000000 -1.000000 0.000000
vn 0.000000 -1.000000 0.000000
vn 0.000000 -1.000000 0.000000
vn 0.938463 0.000000 -0.345380
vn 0.938463 0.000000 -0.345380
vn 0.938463 0.000000 -0.345380
vn 0.938463 0.000000 -0.345380
vn -0.938463 0.000000 0.345380
vn -0.938463 0.000000 0.345380
vn -0.938463 0.000000 0.345380
vn -0.938463 0.000000 0.345380
vn 0.000000 0.000000 1.000000
vn 0.000000 0.000000 1.000000
vn 0.000000 0.000000 1.000000
vn 0.000000 0.000000 1.000000
vn 0.000000 0.997977 -0.063572
vn 0.000000 0.997977 -0.063572
vn 0.000000 0.997977 -0.063572
vn 0.000000 0.997977 -0.063572
vn 0.000000 0.000000 -1.000000
vn 0.000000 0.000000 -1.000000
vn 0.000000 0.000000 -1.000000
vn 0.000000 0.000000 -1.000000
vn 0.000000 -0.997977 -0.063572
vn 0.000000 -0.997977 -0.063572
vn 0.000000 -0.997977 -0.063572
vn 0.000000 -0.997977 -0.063572
vn 0.995748 0.000000 -0.092116
vn 0.995748 0.000000 -0.092116
vn 0.995748 0.000000 -0.092116
vn 0.995748 0.000000 -0.092116
vn -0.995748 0.000000 -0.092116
vn -0.995748 0.000000 -0.092116
vn -0.995748 0.000000 -0.092116
vn -0.995748 0.000000 -0.092116
vn 0.000000 0.000000 1.000000
vn 0.000000 0.000000 1.000000
vn 0.000000 0.000000 1.000000
vn 0.000000 0.000000 1.000000
vn 0.000000 0.990401 0.138226
vn 0.000000 0.990401 0.138226
vn 0.000000 0.990401 0.138226
vn 0.000000 0.990401 0.138226
vn 0.000000 0.000000 -1.000000
vn 0.000000 0.000000 -1.000000
vn 0.000000 0.000000 -1.000000
vn 0.000000 0.000000 -1.000000
vn 0.000000 -0.990401 0.138227
vn 0.000000 -0.990401 0.138227
vn 0.000000 -0.990401 0.138227
vn 0.000000 -0.990401 0.138227
vn 0.905437 0.000000 0.424480
vn 0.905437 0.000000 0.424480
vn 0.905437 0.000000 0.424480
vn 0.905437 0.000000 0.424480
vn -0.905437 0.000000 0.424480
vn -0.905438 0.000000 0.424480
vn -0.905438 0.000000 0.424480
vn -0.905437 0.000000 0.424480
vn -0.283478 -0.000000 0.958979
vn -0.283478 -0.000000 0.958979
vn -0.283478 -0.000000 0.958979
vn -0.283478 -0.000000 0.958979
vn 0.000000 -1.000000 0.000000
vn 0.000000 -1.000000 0.000000
vn 0.000000 -1.000000 0.000000
vn 0.000000 -1.000000 0.000000
vn 0.086699 -0.000000 -0.996235
vn 0.086699 -0.000000 -0.996235
vn 0.086699 -0.000000 -0.996235
vn 0.086699 -0.000000 -0.996235
vn 0.000000 1.000000 -0.000000
vn 0.000000 1.000000 -0.000000
vn 0.000000 1.000000 -0.000000
vn 0.000000 1.000000 -0.000000
vn -0.996235 0.000000 -0.086699
vn -0.996235 0.000000 -0.086699
vn -0.996235 0.000000 -0.086699
vn -0.996235 0.000000 -0.086699
vn 0.000000 -1.000000 0.000000
vn 0.000000 -1.000000 0.000000
vn 0.000000 -1.000000 0.000000
vn 0.000000 -1.000000 0.000000
vn 0.086699 0.000000 -0.996235
vn 0.086699 0.000000 -0.996235
vn 0.086699 0.000000 -0.996235
vn 0.086699 0.000000 -0.996235
vn 0.000000 1.000000 0.000000
vn 0.000000 1.000000 0.000000
vn 0.000000 1.000000 0.000000
vn 0.000000 1.000000 0.000000
vn -0.517504 -0.000000 0.855681
vn -0.517504 -0.000000 0.855681
vn -0.567852 0.000000 0.823130
vn -0.567852 0.000000 0.823130
vn 0.000000 1.000000 0.000000
vn 0.000000 1.000000 0.000000
vn 0.000000 1.000000 0.000000
vn 0.000000 1.000000 0.000000
vn 0.086699 0.000000 -0.996235
vn 0.086699 0.000000 -0.996235
vn 0.086699 0.000000 -0.996235
vn 0.086699 0.000000 -0.996235
vn 0.000000 -1.000000 0.000000
vn 0.000000 -1.000000 0.000000
vn 0.000000 -1.000000 0.000000
vn 0.000000 -1.000000 0.000000
vn -0.795118 0.000000 0.606454
vn -0.795118 0.000000 0.606454
vn -0.795118 0.000000 0.606454
vn -0.795118 0.000000 0.606454
vn 0.000000 0.000000 1.000000
vn 0.000000 0.000000 1.000000
vn 0.000000 0.000000 1.000000
vn 0.000000 0.000000 1.000000
vn 0.000000 1.000000 0.000000
vn 0.000000 1.000000 0.000000
vn 0.000000 1.000000 0.000000
vn 0.000000 1.000000 0.000000
vn 0.000000 -1.000000 0.000000
vn 0.000000 -1.000000 0.000000
vn 0.000000 -1.000000 0.000000
vn 0.000000 -1.000000 0.000000
vn 1.000000 0.000000 0.000000
vn 1.000000 0.000000 0.000000
vn 1.000000 0.000000 0.000000
vn 1.000000 0.000000 0.000000
vn -1.000000 0.000000 0.000000
vn -1.000000 0.000000 0.000000
vn -1.000000 0.000000 0.000000
vn -1.000000 0.000000 0.000000
vn 0.000000 0.000000 1.000000
vn 0.000000 0.000000 1.000000
vn 0.000000 0.000000 1.000000
vn 0.000000 0.000000 1.000000
vn 0.000000 1.000000 0.000000
vn 0.000000 1.000000 0.000000
vn 0.000000 1.000000 0.000000
vn 0.000000 1.000000 0.000000
vn 0.000000 -1.000000 0.000000
vn 0.000000 -1.000000 0.000000
vn 0.000000 -1.000000 0.000000
vn 0.000000 -1.000000 0.000000
vn 1.000000 0.000000 0.000000
vn 1.000000 0.000000 0.000000
vn 1.000000 0.000000 0.000000
vn 1.000000 0.000000 0.000000
vn -1.000000 0.000000 0.000000
vn -1.000000 0.000000 0.000000
vn -1.000000 0.000000 0.000000
vn -1.000000 0.000000 0.000000
vn 0.000000 1.000000 0.000000
vn 0.000000 1.000000 0.000000
vn 0.000000 1.000000 0.000000
vn 0.000000 1.000000 0.000000
vn 0.000000 -1.000000 0.000000
vn 0.000000 -1.000000 0.000000
vn 0.000000 -1.000000 0.000000
vn 0.000000 -1.000000 0.000000
vn -1.000000 0.000000 0.000000
vn -1.000000 0.000000 0.000000
vn -1.000000 0.000000 0.000000
vn -1.000000 0.000000 0.000000
vn -1.000000 0.000000 0.000000
vn -1.000000 0.000000 0.000000
vn 0.000000 -0.000000 1.000000
vn 0.000000 -0.000000 1.000000
vn 0.000000 -0.000000 1.000000
vn 0.000000 -0.000000 1.000000
vn 1.000000 0.000000 0.000000
vn 1.000000 0.000000 0.000000
vn 1.000000 0.000000 0.000000
vn 1.000000 0.000000 0.000000
vn 1.000000 0.000000 0.000000
vn 1.000000 0.000000 0.000000
vn 0.000000 0.000000 -1.000000
vn 0.000000 0.000000 -1.000000
vn 0.000000 0.000000 -1.000000
vn 0.000000 0.000000 -1.000000
vn 0.000000 1.000000 0.000000
vn 0.000000 1.000000 0.000000
vn 0.000000 1.000000 0.000000
vn 0.000000 1.000000 0.000000
vn 0.363244 0.000000 -0.931694
vn 0.363244 0.000000 -0.931694
vn 0.363244 0.000000 -0.931694
vn 0.363244 0.000000 -0.931694
vn 0.000000 -1.000000 0.000000
vn 0.000000 -1.000000 0.000000
vn 0.000000 -1.000000 0.000000
vn 0.000000 -1.000000 0.000000
vn 0.931694 0.000000 0.363244
vn 0.931694 0.000000 0.363244
vn 0.931694 0.000000 0.363244
vn 0.931694 0.000000 0.363244
vn -0.931694 0.000000 -0.363244
vn -0.931694 0.000000 -0.363244
vn -0.931694 0.000000 -0.363244
vn -0.931694 0.000000 -0.363244
vn 0.292275 0.000000 0.956334
vn 0.292275 0.000000 0.956334
vn 0.292275 0.000000 0.956334
vn 0.292275 0.000000 0.956334
vn 0.000000 1.000000 0.000000
vn 0.000000 1.000000 0.000000
vn 0.000000 1.000000 0.000000
vn 0.000000 1.000000 0.000000
vn -0.095847 -0.000000 -0.995396
vn -0.095847 -0.000000 -0.995396
vn -0.095847 -0.000000 -0.995396
vn -0.095847 -0.000000 -0.995396
vn 0.000000 -1.000000 0.000000
vn 0.000000 -1.000000 0.000000
vn 0.000000 -1.000000 0.000000
vn 0.000000 -1.000000 0.000000
vn 0.995396 0.000000 -0.095846
vn 0.995396 0.000000 -0.095846
vn 0.995396 0.000000 -0.095846
vn 0.995396 0.000000 -0.095846
vn 0.000000 1.000000 -0.000000
vn 0.000000 1.000000 -0.000000
vn 0.000000 1.000000 -0.000001
vn 0.000000 1.000000 -0.000001
vn -0.095847 -0.000000 -0.995396
vn -0.095847 -0.000000 -0.995396
vn -0.095847 0.000000 -0.995396
vn -0.095847 0.000000 -0.995396
vn 0.000000 -1.000000 0.000000
vn 0.000000 -1.000000 0.000000
vn 0.000000 -1.000000 0.000000
vn 0.000000 -1.000000 0.000000
vn 0.525342 0.000000 0.850891
vn 0.525342 0.000000 0.850891
vn 0.575390 0.000000 0.817879
vn 0.575390 0.000000 0.817879
vn 0.000000 -1.000000 0.000000
vn 0.000000 -1.000000 0.000000
vn 0.000000 -1.000000 0.000000
vn 0.000000 -1.000000 0.000000
vn -0.095847 0.000000 -0.995396
vn -0.095847 0.000000 -0.995396
vn -0.095847 0.000000 -0.995396
vn -0.095847 0.000000 -0.995396
vn 0.000000 1.000000 0.000000
vn 0.000000 1.000000 0.000000
vn 0.000000 1.000000 0.000000
vn 0.000000 1.000000 0.000000
vn 0.800656 0.000000 0.599125
vn 0.800656 0.000000 0.599125
vn 0.800656 0.000000 0.599125
vn 0.800656 0.000000 0.599125
s off
g pCube11
usemtl initialShadingGroup
f 3/9/1 4/10/2 6/11/3 5/12/4
f 5/17/5 6/18/6 8/19/7 7/20/8
f 7/13/9 8/14/10 2/15/11 1/16/12
f 2/1/13 8/2/14 6/3/15 4/4/16
f 7/5/17 1/6/18 3/7/19 5/8/20
f 11/21/21 12/22/22 14/23/23 13/24/24
f 13/25/25 14/26/26 16/27/27 15/28/28
f 15/29/29 16/30/30 10/31/31 9/32/32
f 10/33/33 16/34/34 14/35/35 12/36/36
f 15/37/37 9/38/38 11/39/39 13/40/40
f 17/41/41 18/42/42 20/43/43 19/44/44
f 19/45/45 20/46/46 22/47/47 21/48/48
f 21/49/49 22/50/50 24/51/51 23/52/52
f 23/53/53 24/54/54 18/55/55 17/56/56
f 18/57/57 24/58/58 22/59/59 20/60/60
f 23/61/61 17/62/62 19/63/63 21/64/64
f 25/65/65 26/66/66 28/67/67 27/68/68
f 27/68/69 28/67/70 30/69/71 29/70/72
f 29/70/73 30/69/74 32/71/75 31/72/76
f 31/72/77 32/71/78 26/73/79 25/74/80
f 26/66/81 32/75/82 30/76/83 28/67/84
f 31/77/85 25/65/86 27/68/87 29/78/88
s 1
f 33/79/89 48/80/90 45/81/91 35/82/92
s 2
f 35/83/93 45/84/94 46/85/95 37/86/96
s 3
f 37/87/97 46/88/98 47/89/99 39/90/100
s 4
f 39/91/101 47/92/102 48/93/103 33/94/104
s off
f 50/95/105 49/96/106 51/97/107 52/98/108
s 2
f 42/99/109 41/100/110 36/101/111 38/102/112
s 3
f 43/103/113 42/104/114 38/105/115 40/106/116
s 4
f 44/107/117 43/108/118 40/109/119 34/110/120
s 1
f 41/111/121 44/112/122 34/113/123 36/114/124
s 2
f 46/115/95 45/116/94 41/117/110 42/118/109
s 3
f 47/119/99 46/115/98 42/118/114 43/120/113
s 4
f 48/121/103 47/119/102 43/120/118 44/122/117
s 1
f 45/116/91 48/121/90 44/122/122 41/117/121
s off
f 34/227/125 40/228/126 49/96/127 50/95/128
f 40/228/129 38/229/130 51/97/131 49/96/132
f 38/229/133 36/230/134 52/98/135 51/97/136
f 36/230/137 34/227/138 50/95/139 52/98/140
f 53/123/141 54/124/142 56/125/143 55/126/144
f 55/127/145 56/128/146 58/129/147 57/130/148
f 59/131/149 60/132/150 54/133/151 53/134/152
f 54/135/153 60/136/154 58/137/155 56/138/156
f 59/139/157 53/140/158 55/141/159 57/142/160
f 61/143/161 62/144/162 64/145/163 63/146/164
f 63/147/165 64/148/166 66/149/167 65/150/168
f 67/151/169 68/152/170 62/153/171 61/154/172
f 62/155/173 68/156/174 66/157/175 64/158/176
f 67/159/177 61/160/178 63/161/179 65/162/180
f 75/163/181 76/164/182 77/165/183 78/166/184
f 71/167/185 72/168/186 80/169/187 79/170/188
f 69/171/189 71/172/190 79/173/191 73/174/192 75/175/193 78/176/194
f 73/177/195 74/178/196 76/179/197 75/180/198
f 70/181/199 77/182/200 76/183/201 74/184/202 80/185/203 72/186/204
f 70/187/205 69/188/206 78/189/207 77/190/208
f 83/191/209 84/192/210 86/193/211 85/194/212
f 85/195/213 86/196/214 88/197/215 87/198/216
f 87/199/217 88/200/218 82/201/219 81/202/220
f 82/203/221 88/204/222 86/205/223 84/206/224
f 87/207/225 81/208/226 83/209/227 85/210/228
s 5
f 89/211/229 104/212/230 101/213/231 91/214/232
s 6
f 91/215/233 101/216/234 102/217/235 93/218/236
s 7
f 93/219/237 102/220/238 103/221/239 95/222/240
s 8
f 95/223/241 103/224/242 104/225/243 89/226/244
s off
f 106/247/245 105/248/246 107/249/247 108/250/248
s 6
f 98/231/249 97/232/250 92/233/251 94/234/252
s 7
f 99/235/253 98/236/254 94/237/255 96/238/256
s 8
f 100/239/257 99/240/258 96/241/259 90/242/260
s 5
f 97/243/261 100/244/262 90/245/263 92/246/264
s 6
f 102/251/235 101/252/234 97/253/250 98/254/249
s 7
f 103/255/239 102/251/238 98/254/254 99/256/253
s 8
f 104/257/243 103/255/242 99/256/258 100/258/257
s 5
f 101/252/231 104/257/230 100/258/262 97/253/261
s off
f 90/259/265 96/260/266 105/248/267 106/247/268
f 96/260/269 94/261/270 107/249/271 105/248/272
f 94/261/273 92/262/274 108/250/275 107/249/276
f 92/262/277 90/259/278 106/247/279 108/250/280
