# Blender 3.4.1
# www.blender.org
o passaro_voando.002
v 0.249595 0.232529 1.829632
v 0.832977 -0.053034 1.829632
v 0.249595 0.232529 1.721395
v 0.832977 -0.053034 1.721395
v 0.207492 -0.251258 1.721395
v 0.811155 -0.303793 1.721395
v 0.207492 -0.251258 1.829632
v 0.811155 -0.303793 1.829632
v 0.546085 0.144885 1.721395
v 0.509323 -0.277526 1.721395
v 0.509323 -0.277526 1.829632
v 0.546085 0.144885 1.829632
v 0.461432 0.169909 1.721395
v 0.430210 -0.270641 1.721395
v 0.430093 -0.270631 1.829632
v 0.472839 0.166537 1.829632
v 0.943550 -0.315315 1.829632
v 0.952714 -0.210019 1.829632
v 0.943550 -0.315315 1.721395
v 0.952714 -0.210019 1.721395
vn 0.2835 0.9590 -0.0000
vn -0.0000 -0.0000 -1.0000
vn -0.0867 -0.9962 -0.0000
vn -0.0000 -0.0000 1.0000
vn 0.9962 -0.0867 -0.0000
vn 0.5181 0.8553 -0.0000
vn 0.5679 0.8231 -0.0000
vn 0.5173 0.8558 -0.0000
vn 0.7951 0.6065 -0.0000
vt 0.435001 0.296615
vt 0.406935 0.273452
vt 0.426234 0.277801
vt 0.396933 0.273324
vt 0.150118 0.856679
vt 0.406696 0.292150
vt 0.384934 0.272968
vt 0.394180 0.254385
vt 0.396693 0.292022
vt 0.036878 0.856679
vt 0.403632 0.273208
vt 0.403963 0.273212
vt 0.403872 0.254509
vt 0.404203 0.254514
vt 0.036878 0.857991
vt 0.422661 0.273452
vt 0.416302 0.296375
vt 0.422901 0.254753
vt 0.416542 0.277677
vt 0.150118 0.857991
vt 0.390059 0.291937
vt 0.387426 0.263649
vt 0.014894 0.850000
vt 0.403752 0.263859
vt 0.404083 0.263863
vt 0.014894 0.854393
vt 0.422781 0.264103
vt 0.416422 0.287026
vt 0.147987 0.854394
vt 0.432748 0.287235
vt 0.390299 0.273239
vt 0.147987 0.850000
vt 0.413375 0.292236
vt 0.386714 0.266310
vt 0.014892 0.859597
vt 0.403720 0.266309
vt 0.404051 0.266313
vt 0.014892 0.863371
vt 0.422750 0.266557
vt 0.416391 0.289480
vt 0.147985 0.863385
vt 0.413975 0.273542
vt 0.433305 0.289552
vt 0.147985 0.858304
vt 0.150118 0.850432
vt 0.150118 0.849881
vt 0.036878 0.850432
vt 0.036878 0.849881
s 1
f 1/2/1 13/33/1 3/6/1
f 13/34/2 5/11/2 3/7/2
f 5/12/3 15/39/3 7/16/3
f 7/17/4 16/43/4 1/1/4
s 0
f 17/45/5 20/48/5 18/46/5
s 1
f 10/24/2 4/8/2 6/13/2
f 10/25/3 8/18/3 11/27/3
f 11/28/4 2/3/4 12/30/4
f 12/31/6 4/9/7 9/21/8
f 14/38/2 9/23/2 10/26/2
f 14/38/3 11/29/3 15/41/3
f 15/41/4 12/32/4 16/44/4
f 16/44/1 9/23/8 13/35/1
s 0
f 8/20/4 18/46/4 2/5/4
f 6/15/3 17/45/3 8/20/3
f 6/15/2 20/48/2 19/47/2
f 2/5/9 20/48/9 4/10/9
s 1
f 1/2/1 16/42/1 13/33/1
f 13/34/2 14/36/2 5/11/2
f 5/12/3 14/37/3 15/39/3
f 7/17/4 15/40/4 16/43/4
s 0
f 17/45/5 19/47/5 20/48/5
s 1
f 10/24/2 9/22/2 4/8/2
f 10/25/3 6/14/3 8/18/3
f 11/28/4 8/19/4 2/3/4
f 12/31/6 2/4/7 4/9/7
f 14/38/2 13/35/2 9/23/2
f 14/38/3 10/26/3 11/29/3
f 15/41/4 11/29/4 12/32/4
f 16/44/1 12/32/6 9/23/8
s 0
f 8/20/4 17/45/4 18/46/4
f 6/15/3 19/47/3 17/45/3
f 6/15/2 4/10/2 20/48/2
f 2/5/9 18/46/9 20/48/9
