# Blender 3.4.1
# www.blender.org
o passaro_voando.001
v -0.291975 0.212757 1.721394
v -0.872710 -0.078153 1.721394
v -0.291975 0.212757 1.829632
v -0.872710 -0.078153 1.829632
v -0.245430 -0.270623 1.829632
v -0.848585 -0.328701 1.829632
v -0.245430 -0.270623 1.721394
v -0.848585 -0.328701 1.721394
v -0.587647 0.122393 1.829632
v -0.547008 -0.299662 1.829632
v -0.547008 -0.299662 1.721394
v -0.587647 0.122393 1.721394
v -0.503228 0.148194 1.829632
v -0.467961 -0.292051 1.829632
v -0.467843 -0.292040 1.721394
v -0.514604 0.144717 1.721394
v -0.980869 -0.341439 1.721394
v -0.990999 -0.236231 1.721394
v -0.980869 -0.341439 1.829632
v -0.990999 -0.236231 1.829632
vn -0.2923 0.9563 -0.0000
vn -0.0000 -0.0000 1.0000
vn 0.0958 -0.9954 -0.0000
vn 0.0959 -0.9954 -0.0000
vn -0.0000 -0.0000 -1.0000
vn -0.9954 -0.0958 -0.0000
vn -0.5259 0.8505 -0.0000
vn -0.5754 0.8179 -0.0000
vn -0.5252 0.8510 -0.0000
vn -0.8007 0.5991 -0.0000
vt 0.448988 0.292835
vt 0.411368 0.262589
vt 0.437040 0.268029
vt 0.398098 0.262589
vt 0.036877 0.956325
vt 0.411368 0.287395
vt 0.382176 0.262321
vt 0.394124 0.237515
vt 0.398098 0.287395
vt 0.150118 0.956325
vt 0.406982 0.262321
vt 0.407421 0.262321
vt 0.406982 0.237515
vt 0.407421 0.237515
vt 0.150118 0.955012
vt 0.432227 0.262321
vt 0.424182 0.292835
vt 0.432227 0.237515
vt 0.424182 0.268029
vt 0.036877 0.955012
vt 0.389297 0.287395
vt 0.385323 0.249918
vt 0.147954 0.983127
vt 0.406982 0.249918
vt 0.407421 0.249918
vt 0.147955 0.978733
vt 0.432227 0.249918
vt 0.424182 0.280432
vt 0.014862 0.978733
vt 0.445841 0.280432
vt 0.389297 0.262589
vt 0.014860 0.983127
vt 0.420229 0.287395
vt 0.384424 0.253459
vt 0.147956 0.973530
vt 0.406982 0.253169
vt 0.407421 0.253169
vt 0.147958 0.969756
vt 0.432227 0.253174
vt 0.424182 0.283688
vt 0.014864 0.969742
vt 0.420706 0.262589
vt 0.446618 0.283496
vt 0.014862 0.974823
vt 0.036877 0.962571
vt 0.036877 0.963122
vt 0.150118 0.962571
vt 0.150118 0.963122
s 1
f 1/2/1 13/33/1 3/6/1
f 13/34/2 5/11/2 3/7/2
f 5/12/3 15/39/3 7/16/4
f 7/17/5 16/43/5 1/1/5
s 0
f 17/45/6 20/48/6 18/46/6
s 1
f 10/24/2 4/8/2 6/13/2
f 10/25/3 8/18/3 11/27/3
f 11/28/5 2/3/5 12/30/5
f 12/31/7 4/9/8 9/21/9
f 14/38/2 9/23/2 10/26/2
f 14/38/3 11/29/3 15/41/3
f 15/41/5 12/32/5 16/44/5
f 16/44/1 9/23/9 13/35/1
s 0
f 8/20/5 18/46/5 2/5/5
f 6/15/3 17/45/3 8/20/3
f 6/15/2 20/48/2 19/47/2
f 2/5/10 20/48/10 4/10/10
s 1
f 1/2/1 16/42/1 13/33/1
f 13/34/2 14/36/2 5/11/2
f 5/12/3 14/37/3 15/39/3
f 7/17/5 15/40/5 16/43/5
s 0
f 17/45/6 19/47/6 20/48/6
s 1
f 10/24/2 9/22/2 4/8/2
f 10/25/3 6/14/3 8/18/3
f 11/28/5 8/19/5 2/3/5
f 12/31/7 2/4/8 4/9/8
f 14/38/2 13/35/2 9/23/2
f 14/38/3 10/26/3 11/29/3
f 15/41/5 11/29/5 12/32/5
f 16/44/1 12/32/7 9/23/9
s 0
f 8/20/5 17/45/5 18/46/5
f 6/15/3 19/47/3 17/45/3
f 6/15/2 4/10/2 20/48/2
f 2/5/10 18/46/10 20/48/10
